<svg class="main-svg" xmlns="http://www.w3.org/2000/svg" xmlns:xlink="http://www.w3.org/1999/xlink" width="1200" height="600" style="" viewBox="0 0 1200 600"><rect x="0" y="0" width="1200" height="600" style="fill: rgb(255, 255, 255); fill-opacity: 1;"/><defs id="defs-e8ea34"><g class="clips"><clipPath id="clipe8ea34xyplot" class="plotclip"><rect width="1040" height="392"/></clipPath><clipPath class="axesclip" id="clipe8ea34x"><rect x="80" y="0" width="1040" height="600"/></clipPath><clipPath class="axesclip" id="clipe8ea34y"><rect x="0" y="100" width="1200" height="392"/></clipPath><clipPath class="axesclip" id="clipe8ea34xy"><rect x="80" y="100" width="1040" height="392"/></clipPath></g><g class="gradients"/><g class="patterns"/></defs><g class="bglayer"><rect class="bg" x="80" y="100" width="1040" height="392" style="fill: rgb(229, 236, 246); fill-opacity: 1; stroke-width: 0;"/></g><g class="layer-below"><g class="imagelayer"/><g class="shapelayer"/></g><g class="cartesianlayer"><g class="subplot xy"><g class="layer-subplot"><g class="shapelayer"/><g class="imagelayer"/></g><g class="minor-gridlayer"><g class="x"/><g class="y"/></g><g class="gridlayer"><g class="x"><path class="xgrid crisp" transform="translate(100.53,0)" d="M0,100v392" style="stroke: rgb(255, 255, 255); stroke-opacity: 1; stroke-width: 1px;"/><path class="xgrid crisp" transform="translate(121.05,0)" d="M0,100v392" style="stroke: rgb(255, 255, 255); stroke-opacity: 1; stroke-width: 1px;"/><path class="xgrid crisp" transform="translate(141.57999999999998,0)" d="M0,100v392" style="stroke: rgb(255, 255, 255); stroke-opacity: 1; stroke-width: 1px;"/><path class="xgrid crisp" transform="translate(162.11,0)" d="M0,100v392" style="stroke: rgb(255, 255, 255); stroke-opacity: 1; stroke-width: 1px;"/><path class="xgrid crisp" transform="translate(182.63,0)" d="M0,100v392" style="stroke: rgb(255, 255, 255); stroke-opacity: 1; stroke-width: 1px;"/><path class="xgrid crisp" transform="translate(203.16,0)" d="M0,100v392" style="stroke: rgb(255, 255, 255); stroke-opacity: 1; stroke-width: 1px;"/><path class="xgrid crisp" transform="translate(223.68,0)" d="M0,100v392" style="stroke: rgb(255, 255, 255); stroke-opacity: 1; stroke-width: 1px;"/><path class="xgrid crisp" transform="translate(244.21,0)" d="M0,100v392" style="stroke: rgb(255, 255, 255); stroke-opacity: 1; stroke-width: 1px;"/><path class="xgrid crisp" transform="translate(264.74,0)" d="M0,100v392" style="stroke: rgb(255, 255, 255); stroke-opacity: 1; stroke-width: 1px;"/><path class="xgrid crisp" transform="translate(285.26,0)" d="M0,100v392" style="stroke: rgb(255, 255, 255); stroke-opacity: 1; stroke-width: 1px;"/><path class="xgrid crisp" transform="translate(305.78999999999996,0)" d="M0,100v392" style="stroke: rgb(255, 255, 255); stroke-opacity: 1; stroke-width: 1px;"/><path class="xgrid crisp" transform="translate(326.32,0)" d="M0,100v392" style="stroke: rgb(255, 255, 255); stroke-opacity: 1; stroke-width: 1px;"/><path class="xgrid crisp" transform="translate(346.84,0)" d="M0,100v392" style="stroke: rgb(255, 255, 255); stroke-opacity: 1; stroke-width: 1px;"/><path class="xgrid crisp" transform="translate(367.37,0)" d="M0,100v392" style="stroke: rgb(255, 255, 255); stroke-opacity: 1; stroke-width: 1px;"/><path class="xgrid crisp" transform="translate(387.89,0)" d="M0,100v392" style="stroke: rgb(255, 255, 255); stroke-opacity: 1; stroke-width: 1px;"/><path class="xgrid crisp" transform="translate(408.42,0)" d="M0,100v392" style="stroke: rgb(255, 255, 255); stroke-opacity: 1; stroke-width: 1px;"/><path class="xgrid crisp" transform="translate(428.95,0)" d="M0,100v392" style="stroke: rgb(255, 255, 255); stroke-opacity: 1; stroke-width: 1px;"/><path class="xgrid crisp" transform="translate(449.47,0)" d="M0,100v392" style="stroke: rgb(255, 255, 255); stroke-opacity: 1; stroke-width: 1px;"/><path class="xgrid crisp" transform="translate(470,0)" d="M0,100v392" style="stroke: rgb(255, 255, 255); stroke-opacity: 1; stroke-width: 1px;"/><path class="xgrid crisp" transform="translate(490.53,0)" d="M0,100v392" style="stroke: rgb(255, 255, 255); stroke-opacity: 1; stroke-width: 1px;"/><path class="xgrid crisp" transform="translate(511.05,0)" d="M0,100v392" style="stroke: rgb(255, 255, 255); stroke-opacity: 1; stroke-width: 1px;"/><path class="xgrid crisp" transform="translate(531.5799999999999,0)" d="M0,100v392" style="stroke: rgb(255, 255, 255); stroke-opacity: 1; stroke-width: 1px;"/><path class="xgrid crisp" transform="translate(552.11,0)" d="M0,100v392" style="stroke: rgb(255, 255, 255); stroke-opacity: 1; stroke-width: 1px;"/><path class="xgrid crisp" transform="translate(572.63,0)" d="M0,100v392" style="stroke: rgb(255, 255, 255); stroke-opacity: 1; stroke-width: 1px;"/><path class="xgrid crisp" transform="translate(593.16,0)" d="M0,100v392" style="stroke: rgb(255, 255, 255); stroke-opacity: 1; stroke-width: 1px;"/><path class="xgrid crisp" transform="translate(613.68,0)" d="M0,100v392" style="stroke: rgb(255, 255, 255); stroke-opacity: 1; stroke-width: 1px;"/><path class="xgrid crisp" transform="translate(634.21,0)" d="M0,100v392" style="stroke: rgb(255, 255, 255); stroke-opacity: 1; stroke-width: 1px;"/><path class="xgrid crisp" transform="translate(654.74,0)" d="M0,100v392" style="stroke: rgb(255, 255, 255); stroke-opacity: 1; stroke-width: 1px;"/><path class="xgrid crisp" transform="translate(675.26,0)" d="M0,100v392" style="stroke: rgb(255, 255, 255); stroke-opacity: 1; stroke-width: 1px;"/><path class="xgrid crisp" transform="translate(695.79,0)" d="M0,100v392" style="stroke: rgb(255, 255, 255); stroke-opacity: 1; stroke-width: 1px;"/><path class="xgrid crisp" transform="translate(716.32,0)" d="M0,100v392" style="stroke: rgb(255, 255, 255); stroke-opacity: 1; stroke-width: 1px;"/><path class="xgrid crisp" transform="translate(736.84,0)" d="M0,100v392" style="stroke: rgb(255, 255, 255); stroke-opacity: 1; stroke-width: 1px;"/><path class="xgrid crisp" transform="translate(757.37,0)" d="M0,100v392" style="stroke: rgb(255, 255, 255); stroke-opacity: 1; stroke-width: 1px;"/><path class="xgrid crisp" transform="translate(777.89,0)" d="M0,100v392" style="stroke: rgb(255, 255, 255); stroke-opacity: 1; stroke-width: 1px;"/><path class="xgrid crisp" transform="translate(798.42,0)" d="M0,100v392" style="stroke: rgb(255, 255, 255); stroke-opacity: 1; stroke-width: 1px;"/><path class="xgrid crisp" transform="translate(818.95,0)" d="M0,100v392" style="stroke: rgb(255, 255, 255); stroke-opacity: 1; stroke-width: 1px;"/><path class="xgrid crisp" transform="translate(839.47,0)" d="M0,100v392" style="stroke: rgb(255, 255, 255); stroke-opacity: 1; stroke-width: 1px;"/><path class="xgrid crisp" transform="translate(860,0)" d="M0,100v392" style="stroke: rgb(255, 255, 255); stroke-opacity: 1; stroke-width: 1px;"/><path class="xgrid crisp" transform="translate(880.53,0)" d="M0,100v392" style="stroke: rgb(255, 255, 255); stroke-opacity: 1; stroke-width: 1px;"/><path class="xgrid crisp" transform="translate(901.05,0)" d="M0,100v392" style="stroke: rgb(255, 255, 255); stroke-opacity: 1; stroke-width: 1px;"/><path class="xgrid crisp" transform="translate(921.58,0)" d="M0,100v392" style="stroke: rgb(255, 255, 255); stroke-opacity: 1; stroke-width: 1px;"/><path class="xgrid crisp" transform="translate(942.11,0)" d="M0,100v392" style="stroke: rgb(255, 255, 255); stroke-opacity: 1; stroke-width: 1px;"/><path class="xgrid crisp" transform="translate(962.63,0)" d="M0,100v392" style="stroke: rgb(255, 255, 255); stroke-opacity: 1; stroke-width: 1px;"/><path class="xgrid crisp" transform="translate(983.16,0)" d="M0,100v392" style="stroke: rgb(255, 255, 255); stroke-opacity: 1; stroke-width: 1px;"/><path class="xgrid crisp" transform="translate(1003.68,0)" d="M0,100v392" style="stroke: rgb(255, 255, 255); stroke-opacity: 1; stroke-width: 1px;"/><path class="xgrid crisp" transform="translate(1024.21,0)" d="M0,100v392" style="stroke: rgb(255, 255, 255); stroke-opacity: 1; stroke-width: 1px;"/><path class="xgrid crisp" transform="translate(1044.74,0)" d="M0,100v392" style="stroke: rgb(255, 255, 255); stroke-opacity: 1; stroke-width: 1px;"/><path class="xgrid crisp" transform="translate(1065.26,0)" d="M0,100v392" style="stroke: rgb(255, 255, 255); stroke-opacity: 1; stroke-width: 1px;"/><path class="xgrid crisp" transform="translate(1085.79,0)" d="M0,100v392" style="stroke: rgb(255, 255, 255); stroke-opacity: 1; stroke-width: 1px;"/><path class="xgrid crisp" transform="translate(1106.32,0)" d="M0,100v392" style="stroke: rgb(255, 255, 255); stroke-opacity: 1; stroke-width: 1px;"/></g><g class="y"><path class="ygrid crisp" transform="translate(0,420.68)" d="M80,0h1040" style="stroke: rgb(255, 255, 255); stroke-opacity: 1; stroke-width: 1px;"/><path class="ygrid crisp" transform="translate(0,349.84000000000003)" d="M80,0h1040" style="stroke: rgb(255, 255, 255); stroke-opacity: 1; stroke-width: 1px;"/><path class="ygrid crisp" transform="translate(0,279)" d="M80,0h1040" style="stroke: rgb(255, 255, 255); stroke-opacity: 1; stroke-width: 1px;"/><path class="ygrid crisp" transform="translate(0,208.15)" d="M80,0h1040" style="stroke: rgb(255, 255, 255); stroke-opacity: 1; stroke-width: 1px;"/><path class="ygrid crisp" transform="translate(0,137.31)" d="M80,0h1040" style="stroke: rgb(255, 255, 255); stroke-opacity: 1; stroke-width: 1px;"/></g></g><g class="zerolinelayer"><path class="yzl zl crisp" transform="translate(0,491.53)" d="M80,0h1040" style="stroke: rgb(255, 255, 255); stroke-opacity: 1; stroke-width: 2px;"/></g><g class="layer-between"><g class="shapelayer"/><g class="imagelayer"/></g><path class="xlines-below"/><path class="ylines-below"/><g class="overlines-below"/><g class="xaxislayer-below"/><g class="yaxislayer-below"/><g class="overaxes-below"/><g class="overplot"><g class="xy" transform="translate(80,100)" clip-path="url(#clipe8ea34xyplot)"><g class="scatterlayer mlayer"><g class="trace scatter tracee42773" style="stroke-miterlimit: 2; opacity: 1;"><g class="fills"/><g class="errorbars"/><g class="lines"><path class="js-line" d="M0,212.29L6.84,179.35L13.68,181.12L20.53,140.74L27.37,285.26L34.21,254.8L41.05,188.92L47.89,194.23L54.74,227.88L61.58,179.35L68.42,331.31L75.26,236.73L82.11,260.82L88.95,165.18L95.79,167.66L102.63,230.36L109.47,19.6L116.32,228.94L123.16,312.89L130,372.4L136.84,292.35L143.68,211.59L150.53,151.01L157.37,208.4L164.21,82.65L171.05,188.56L177.89,335.21L184.74,331.67L191.58,208.75L198.42,224.69L205.26,172.27L212.11,196.35L218.95,243.11L225.79,134.01L232.63,140.74L239.47,104.97L246.32,148.89L253.16,315.02L260,349.38L266.84,228.59L273.68,173.33L280.53,237.44L287.37,251.26L294.21,216.54L301.05,146.06L307.89,315.02L314.74,354.69L321.58,241.69L328.42,167.66L335.26,130.47L342.11,65.29L348.95,166.95L355.79,315.37L362.63,284.91L369.47,352.92L376.32,231.07L383.16,136.49L390,179.71L396.84,241.69L403.68,258.7L410.53,320.33L417.37,220.09L424.21,190.33L431.05,216.9L437.89,213.36L444.74,318.56L451.58,358.23L458.42,249.13L465.26,194.58L472.11,149.95L478.95,218.67L485.79,239.92L492.63,187.5L499.47,304.04L506.32,357.88L513.16,240.99L520,162.35L526.84,203.08L533.68,220.09L540.53,216.19L547.37,316.79L554.21,349.02L561.05,255.51L567.89,194.58L574.74,211.59L581.58,221.15L588.42,334.14L595.26,253.03L602.11,340.87L608.95,366.73L615.79,240.63L622.63,161.29L629.47,145.7L636.32,294.83L643.16,306.16L650,223.63L656.84,163.06L663.68,222.57L670.53,202.73L677.37,137.2L684.21,302.97L691.05,315.73L697.89,246.3L704.74,147.83L711.58,67.42L718.42,104.26L725.26,165.54L732.11,180.41L738.95,293.06L745.79,348.31L752.63,264.72L759.47,168.73L766.32,171.91L773.16,178.29L780,327.77L786.84,200.25L793.68,305.45L800.53,343.35L807.37,221.5L814.21,216.9L821.05,130.47L827.89,208.75L834.74,179.71L841.58,337.33L848.42,209.11L855.26,216.54L862.11,151.72L868.95,181.48L875.79,318.56L882.63,347.6L889.47,229.65L896.32,147.83L903.16,143.58L910,124.45L916.84,343.35L923.68,196.71L930.53,273.22L937.37,314.31L944.21,208.04L951.05,53.6L957.89,147.12L964.74,64.23L971.58,117.72L978.42,289.51L985.26,228.23L992.11,209.11L998.95,195.65L1005.79,102.84L1012.63,160.58L1019.47,127.99L1026.32,289.51L1033.16,358.23L1040,225.4" style="vector-effect: none; fill: none; stroke: rgb(95, 70, 144); stroke-opacity: 1; stroke-width: 2px; opacity: 1;"/></g><g class="points"/><g class="text"/></g></g></g></g><path class="xlines-above crisp" d="M0,0" style="fill: none;"/><path class="ylines-above crisp" d="M0,0" style="fill: none;"/><g class="overlines-above"/><g class="xaxislayer-above"><g class="xtick"><text text-anchor="start" x="0" y="505" transform="translate(80,0) rotate(90,0,499)" style="font-family: 'Times New Roman'; font-size: 12px; fill: rgb(42, 63, 95); fill-opacity: 1; white-space: pre; opacity: 1;">5/1/2024</text></g><g class="xtick"><text text-anchor="start" x="0" y="505" transform="translate(100.53,0) rotate(90,0,499)" style="font-family: 'Times New Roman'; font-size: 12px; fill: rgb(42, 63, 95); fill-opacity: 1; white-space: pre; opacity: 1;">5/12/2024</text></g><g class="xtick"><text text-anchor="start" x="0" y="505" transform="translate(121.05,0) rotate(90,0,499)" style="font-family: 'Times New Roman'; font-size: 12px; fill: rgb(42, 63, 95); fill-opacity: 1; white-space: pre; opacity: 1;">5/15/2024</text></g><g class="xtick"><text text-anchor="start" x="0" y="505" transform="translate(141.57999999999998,0) rotate(90,0,499)" style="font-family: 'Times New Roman'; font-size: 12px; fill: rgb(42, 63, 95); fill-opacity: 1; white-space: pre; opacity: 1;">5/18/2024</text></g><g class="xtick"><text text-anchor="start" x="0" y="505" transform="translate(162.11,0) rotate(90,0,499)" style="font-family: 'Times New Roman'; font-size: 12px; fill: rgb(42, 63, 95); fill-opacity: 1; white-space: pre; opacity: 1;">5/20/2024</text></g><g class="xtick"><text text-anchor="start" x="0" y="505" transform="translate(182.63,0) rotate(90,0,499)" style="font-family: 'Times New Roman'; font-size: 12px; fill: rgb(42, 63, 95); fill-opacity: 1; white-space: pre; opacity: 1;">5/23/2024</text></g><g class="xtick"><text text-anchor="start" x="0" y="505" transform="translate(203.16,0) rotate(90,0,499)" style="font-family: 'Times New Roman'; font-size: 12px; fill: rgb(42, 63, 95); fill-opacity: 1; white-space: pre; opacity: 1;">5/26/2024</text></g><g class="xtick"><text text-anchor="start" x="0" y="505" transform="translate(223.68,0) rotate(90,0,499)" style="font-family: 'Times New Roman'; font-size: 12px; fill: rgb(42, 63, 95); fill-opacity: 1; white-space: pre; opacity: 1;">5/29/2024</text></g><g class="xtick"><text text-anchor="start" x="0" y="505" transform="translate(244.21,0) rotate(90,0,499)" style="font-family: 'Times New Roman'; font-size: 12px; fill: rgb(42, 63, 95); fill-opacity: 1; white-space: pre; opacity: 1;">5/31/2024</text></g><g class="xtick"><text text-anchor="start" x="0" y="505" transform="translate(264.74,0) rotate(90,0,499)" style="font-family: 'Times New Roman'; font-size: 12px; fill: rgb(42, 63, 95); fill-opacity: 1; white-space: pre; opacity: 1;">5/6/2024</text></g><g class="xtick"><text text-anchor="start" x="0" y="505" transform="translate(285.26,0) rotate(90,0,499)" style="font-family: 'Times New Roman'; font-size: 12px; fill: rgb(42, 63, 95); fill-opacity: 1; white-space: pre; opacity: 1;">5/9/2024</text></g><g class="xtick"><text text-anchor="start" x="0" y="505" transform="translate(305.78999999999996,0) rotate(90,0,499)" style="font-family: 'Times New Roman'; font-size: 12px; fill: rgb(42, 63, 95); fill-opacity: 1; white-space: pre; opacity: 1;">6/11/2024</text></g><g class="xtick"><text text-anchor="start" x="0" y="505" transform="translate(326.32,0) rotate(90,0,499)" style="font-family: 'Times New Roman'; font-size: 12px; fill: rgb(42, 63, 95); fill-opacity: 1; white-space: pre; opacity: 1;">6/14/2024</text></g><g class="xtick"><text text-anchor="start" x="0" y="505" transform="translate(346.84,0) rotate(90,0,499)" style="font-family: 'Times New Roman'; font-size: 12px; fill: rgb(42, 63, 95); fill-opacity: 1; white-space: pre; opacity: 1;">6/17/2024</text></g><g class="xtick"><text text-anchor="start" x="0" y="505" transform="translate(367.37,0) rotate(90,0,499)" style="font-family: 'Times New Roman'; font-size: 12px; fill: rgb(42, 63, 95); fill-opacity: 1; white-space: pre; opacity: 1;">6/2/2024</text></g><g class="xtick"><text text-anchor="start" x="0" y="505" transform="translate(387.89,0) rotate(90,0,499)" style="font-family: 'Times New Roman'; font-size: 12px; fill: rgb(42, 63, 95); fill-opacity: 1; white-space: pre; opacity: 1;">6/22/2024</text></g><g class="xtick"><text text-anchor="start" x="0" y="505" transform="translate(408.42,0) rotate(90,0,499)" style="font-family: 'Times New Roman'; font-size: 12px; fill: rgb(42, 63, 95); fill-opacity: 1; white-space: pre; opacity: 1;">6/25/2024</text></g><g class="xtick"><text text-anchor="start" x="0" y="505" transform="translate(428.95,0) rotate(90,0,499)" style="font-family: 'Times New Roman'; font-size: 12px; fill: rgb(42, 63, 95); fill-opacity: 1; white-space: pre; opacity: 1;">6/28/2024</text></g><g class="xtick"><text text-anchor="start" x="0" y="505" transform="translate(449.47,0) rotate(90,0,499)" style="font-family: 'Times New Roman'; font-size: 12px; fill: rgb(42, 63, 95); fill-opacity: 1; white-space: pre; opacity: 1;">6/30/2024</text></g><g class="xtick"><text text-anchor="start" x="0" y="505" transform="translate(470,0) rotate(90,0,499)" style="font-family: 'Times New Roman'; font-size: 12px; fill: rgb(42, 63, 95); fill-opacity: 1; white-space: pre; opacity: 1;">6/6/2024</text></g><g class="xtick"><text text-anchor="start" x="0" y="505" transform="translate(490.53,0) rotate(90,0,499)" style="font-family: 'Times New Roman'; font-size: 12px; fill: rgb(42, 63, 95); fill-opacity: 1; white-space: pre; opacity: 1;">6/9/2024</text></g><g class="xtick"><text text-anchor="start" x="0" y="505" transform="translate(511.05,0) rotate(90,0,499)" style="font-family: 'Times New Roman'; font-size: 12px; fill: rgb(42, 63, 95); fill-opacity: 1; white-space: pre; opacity: 1;">7/11/2024</text></g><g class="xtick"><text text-anchor="start" x="0" y="505" transform="translate(531.5799999999999,0) rotate(90,0,499)" style="font-family: 'Times New Roman'; font-size: 12px; fill: rgb(42, 63, 95); fill-opacity: 1; white-space: pre; opacity: 1;">7/14/2024</text></g><g class="xtick"><text text-anchor="start" x="0" y="505" transform="translate(552.11,0) rotate(90,0,499)" style="font-family: 'Times New Roman'; font-size: 12px; fill: rgb(42, 63, 95); fill-opacity: 1; white-space: pre; opacity: 1;">7/17/2024</text></g><g class="xtick"><text text-anchor="start" x="0" y="505" transform="translate(572.63,0) rotate(90,0,499)" style="font-family: 'Times New Roman'; font-size: 12px; fill: rgb(42, 63, 95); fill-opacity: 1; white-space: pre; opacity: 1;">7/2/2024</text></g><g class="xtick"><text text-anchor="start" x="0" y="505" transform="translate(593.16,0) rotate(90,0,499)" style="font-family: 'Times New Roman'; font-size: 12px; fill: rgb(42, 63, 95); fill-opacity: 1; white-space: pre; opacity: 1;">7/22/2024</text></g><g class="xtick"><text text-anchor="start" x="0" y="505" transform="translate(613.68,0) rotate(90,0,499)" style="font-family: 'Times New Roman'; font-size: 12px; fill: rgb(42, 63, 95); fill-opacity: 1; white-space: pre; opacity: 1;">7/25/2024</text></g><g class="xtick"><text text-anchor="start" x="0" y="505" transform="translate(634.21,0) rotate(90,0,499)" style="font-family: 'Times New Roman'; font-size: 12px; fill: rgb(42, 63, 95); fill-opacity: 1; white-space: pre; opacity: 1;">7/28/2024</text></g><g class="xtick"><text text-anchor="start" x="0" y="505" transform="translate(654.74,0) rotate(90,0,499)" style="font-family: 'Times New Roman'; font-size: 12px; fill: rgb(42, 63, 95); fill-opacity: 1; white-space: pre; opacity: 1;">7/30/2024</text></g><g class="xtick"><text text-anchor="start" x="0" y="505" transform="translate(675.26,0) rotate(90,0,499)" style="font-family: 'Times New Roman'; font-size: 12px; fill: rgb(42, 63, 95); fill-opacity: 1; white-space: pre; opacity: 1;">7/5/2024</text></g><g class="xtick"><text text-anchor="start" x="0" y="505" transform="translate(695.79,0) rotate(90,0,499)" style="font-family: 'Times New Roman'; font-size: 12px; fill: rgb(42, 63, 95); fill-opacity: 1; white-space: pre; opacity: 1;">7/8/2024</text></g><g class="xtick"><text text-anchor="start" x="0" y="505" transform="translate(716.32,0) rotate(90,0,499)" style="font-family: 'Times New Roman'; font-size: 12px; fill: rgb(42, 63, 95); fill-opacity: 1; white-space: pre; opacity: 1;">8/10/2024</text></g><g class="xtick"><text text-anchor="start" x="0" y="505" transform="translate(736.84,0) rotate(90,0,499)" style="font-family: 'Times New Roman'; font-size: 12px; fill: rgb(42, 63, 95); fill-opacity: 1; white-space: pre; opacity: 1;">8/13/2024</text></g><g class="xtick"><text text-anchor="start" x="0" y="505" transform="translate(757.37,0) rotate(90,0,499)" style="font-family: 'Times New Roman'; font-size: 12px; fill: rgb(42, 63, 95); fill-opacity: 1; white-space: pre; opacity: 1;">8/16/2024</text></g><g class="xtick"><text text-anchor="start" x="0" y="505" transform="translate(777.89,0) rotate(90,0,499)" style="font-family: 'Times New Roman'; font-size: 12px; fill: rgb(42, 63, 95); fill-opacity: 1; white-space: pre; opacity: 1;">8/19/2024</text></g><g class="xtick"><text text-anchor="start" x="0" y="505" transform="translate(798.42,0) rotate(90,0,499)" style="font-family: 'Times New Roman'; font-size: 12px; fill: rgb(42, 63, 95); fill-opacity: 1; white-space: pre; opacity: 1;">8/21/2024</text></g><g class="xtick"><text text-anchor="start" x="0" y="505" transform="translate(818.95,0) rotate(90,0,499)" style="font-family: 'Times New Roman'; font-size: 12px; fill: rgb(42, 63, 95); fill-opacity: 1; white-space: pre; opacity: 1;">8/24/2024</text></g><g class="xtick"><text text-anchor="start" x="0" y="505" transform="translate(839.47,0) rotate(90,0,499)" style="font-family: 'Times New Roman'; font-size: 12px; fill: rgb(42, 63, 95); fill-opacity: 1; white-space: pre; opacity: 1;">8/27/2024</text></g><g class="xtick"><text text-anchor="start" x="0" y="505" transform="translate(860,0) rotate(90,0,499)" style="font-family: 'Times New Roman'; font-size: 12px; fill: rgb(42, 63, 95); fill-opacity: 1; white-space: pre; opacity: 1;">8/3/2024</text></g><g class="xtick"><text text-anchor="start" x="0" y="505" transform="translate(880.53,0) rotate(90,0,499)" style="font-family: 'Times New Roman'; font-size: 12px; fill: rgb(42, 63, 95); fill-opacity: 1; white-space: pre; opacity: 1;">8/4/2024</text></g><g class="xtick"><text text-anchor="start" x="0" y="505" transform="translate(901.05,0) rotate(90,0,499)" style="font-family: 'Times New Roman'; font-size: 12px; fill: rgb(42, 63, 95); fill-opacity: 1; white-space: pre; opacity: 1;">8/7/2024</text></g><g class="xtick"><text text-anchor="start" x="0" y="505" transform="translate(921.58,0) rotate(90,0,499)" style="font-family: 'Times New Roman'; font-size: 12px; fill: rgb(42, 63, 95); fill-opacity: 1; white-space: pre; opacity: 1;">9/1/2024</text></g><g class="xtick"><text text-anchor="start" x="0" y="505" transform="translate(942.11,0) rotate(90,0,499)" style="font-family: 'Times New Roman'; font-size: 12px; fill: rgb(42, 63, 95); fill-opacity: 1; white-space: pre; opacity: 1;">9/12/2024</text></g><g class="xtick"><text text-anchor="start" x="0" y="505" transform="translate(962.63,0) rotate(90,0,499)" style="font-family: 'Times New Roman'; font-size: 12px; fill: rgb(42, 63, 95); fill-opacity: 1; white-space: pre; opacity: 1;">9/15/2024</text></g><g class="xtick"><text text-anchor="start" x="0" y="505" transform="translate(983.16,0) rotate(90,0,499)" style="font-family: 'Times New Roman'; font-size: 12px; fill: rgb(42, 63, 95); fill-opacity: 1; white-space: pre; opacity: 1;">9/18/2024</text></g><g class="xtick"><text text-anchor="start" x="0" y="505" transform="translate(1003.68,0) rotate(90,0,499)" style="font-family: 'Times New Roman'; font-size: 12px; fill: rgb(42, 63, 95); fill-opacity: 1; white-space: pre; opacity: 1;">9/20/2024</text></g><g class="xtick"><text text-anchor="start" x="0" y="505" transform="translate(1024.21,0) rotate(90,0,499)" style="font-family: 'Times New Roman'; font-size: 12px; fill: rgb(42, 63, 95); fill-opacity: 1; white-space: pre; opacity: 1;">9/23/2024</text></g><g class="xtick"><text text-anchor="start" x="0" y="505" transform="translate(1044.74,0) rotate(90,0,499)" style="font-family: 'Times New Roman'; font-size: 12px; fill: rgb(42, 63, 95); fill-opacity: 1; white-space: pre; opacity: 1;">9/26/2024</text></g><g class="xtick"><text text-anchor="start" x="0" y="505" transform="translate(1065.26,0) rotate(90,0,499)" style="font-family: 'Times New Roman'; font-size: 12px; fill: rgb(42, 63, 95); fill-opacity: 1; white-space: pre; opacity: 1;">9/29/2024</text></g><g class="xtick"><text text-anchor="start" x="0" y="505" transform="translate(1085.79,0) rotate(90,0,499)" style="font-family: 'Times New Roman'; font-size: 12px; fill: rgb(42, 63, 95); fill-opacity: 1; white-space: pre; opacity: 1;">9/4/2024</text></g><g class="xtick"><text text-anchor="start" x="0" y="505" transform="translate(1106.32,0) rotate(90,0,499)" style="font-family: 'Times New Roman'; font-size: 12px; fill: rgb(42, 63, 95); fill-opacity: 1; white-space: pre; opacity: 1;">9/7/2024</text></g></g><g class="yaxislayer-above"><g class="ytick"><text text-anchor="end" x="79" y="4.199999999999999" transform="translate(0,491.53)" style="font-family: 'Times New Roman'; font-size: 12px; fill: rgb(42, 63, 95); fill-opacity: 1; white-space: pre; opacity: 1;">0</text></g><g class="ytick"><text text-anchor="end" x="79" y="4.199999999999999" style="font-family: 'Times New Roman'; font-size: 12px; fill: rgb(42, 63, 95); fill-opacity: 1; white-space: pre; opacity: 1;" transform="translate(0,420.68)">200</text></g><g class="ytick"><text text-anchor="end" x="79" y="4.199999999999999" style="font-family: 'Times New Roman'; font-size: 12px; fill: rgb(42, 63, 95); fill-opacity: 1; white-space: pre; opacity: 1;" transform="translate(0,349.84000000000003)">400</text></g><g class="ytick"><text text-anchor="end" x="79" y="4.199999999999999" style="font-family: 'Times New Roman'; font-size: 12px; fill: rgb(42, 63, 95); fill-opacity: 1; white-space: pre; opacity: 1;" transform="translate(0,279)">600</text></g><g class="ytick"><text text-anchor="end" x="79" y="4.199999999999999" style="font-family: 'Times New Roman'; font-size: 12px; fill: rgb(42, 63, 95); fill-opacity: 1; white-space: pre; opacity: 1;" transform="translate(0,208.15)">800</text></g><g class="ytick"><text text-anchor="end" x="79" y="4.199999999999999" style="font-family: 'Times New Roman'; font-size: 12px; fill: rgb(42, 63, 95); fill-opacity: 1; white-space: pre; opacity: 1;" transform="translate(0,137.31)">1000</text></g></g><g class="overaxes-above"/></g></g><g class="polarlayer"/><g class="smithlayer"/><g class="ternarylayer"/><g class="geolayer"/><g class="funnelarealayer"/><g class="pielayer"/><g class="iciclelayer"/><g class="treemaplayer"/><g class="sunburstlayer"/><g class="glimages"/><defs id="topdefs-e8ea34"><g class="clips"/></defs><g class="layer-above"><g class="imagelayer"/><g class="shapelayer"/></g><g class="infolayer"><g class="g-gtitle"><text class="gtitle" x="60" y="50" text-anchor="start" dy="0em" style="opacity: 1; font-family: 'Times New Roman'; font-size: 20px; fill: rgb(42, 63, 95); fill-opacity: 1; white-space: pre;">Job Posting Trends Over Time</text></g><g class="g-xtitle"><text class="xtitle" x="600" y="587.3" text-anchor="middle" style="opacity: 1; font-family: 'Times New Roman'; font-size: 14px; fill: rgb(42, 63, 95); fill-opacity: 1; white-space: pre;">Posted Time</text></g><g class="g-ytitle"><text class="ytitle" transform="rotate(-90,27.6,296)" x="27.6" y="296" text-anchor="middle" style="opacity: 1; font-family: 'Times New Roman'; font-size: 14px; fill: rgb(42, 63, 95); fill-opacity: 1; white-space: pre;">Number of Job Postings</text></g></g></svg>