<svg class="main-svg" xmlns="http://www.w3.org/2000/svg" xmlns:xlink="http://www.w3.org/1999/xlink" width="1200" height="900" style="" viewBox="0 0 1200 900"><rect x="0" y="0" width="1200" height="900" style="fill: rgb(255, 255, 255); fill-opacity: 1;"/><defs id="defs-844e78"><g class="clips"/><g class="gradients"/><g class="patterns"/></defs><g class="bglayer"/><g class="layer-below"><g class="imagelayer"/><g class="shapelayer"/></g><g class="cartesianlayer"/><g class="polarlayer"/><g class="smithlayer"/><g class="ternarylayer"/><g class="geolayer"/><g class="funnelarealayer"/><g class="pielayer"/><g class="iciclelayer"/><g class="treemaplayer"/><g class="sunburstlayer"/><g class="glimages"/><g class="sankey" transform="translate(80,100)matrix(1 0 0 1 0 0)" style="box-sizing: content-box; position: absolute; left: 0px; shape-rendering: geometricprecision; pointer-events: none;"><g class="sankey-links" style="fill: none;"><path class="sankey-link" d="M 35.128362161714804 686.1179957248237  L 30.128362161714804 686.1179957248237 A 10.387803787156212 10.387803787156212 0 0 0 19.740558374558592 696.5057995119798 L 19.740558374558592 701.5057995119798 A 10.387803787156212 10.387803787156212 0 0 0 30.128362161714804 711.893603299136 L 60.128362161714804 711.893603299136 A 10.387803787156212 10.387803787156212 0 0 0 70.516165948871 701.5057995119798 L 70.516165948871 696.5057995119798 A 10.387803787156212 10.387803787156212 0 0 0 60.128362161714804 686.1179957248237 L 55.128362161714804 686.1179957248237 L 55.128362161714804 686.5057995119798 L 60.128362161714804 686.5057995119798 A 10 10 0 0 1 70.1283621617148 696.5057995119798 L 70.1283621617148 701.5057995119798 A 10 10 0 0 1 60.128362161714804 711.5057995119798 L 30.128362161714804 711.5057995119798 A 10 10 0 0 1 20.1283621617148 701.5057995119798 L 20.1283621617148 696.5057995119798 A 10 10 0 0 1 30.128362161714804 686.5057995119798 L 35.128362161714804 686.5057995119798Z" style="stroke: rgb(0, 0, 0); stroke-opacity: 0.2; fill: rgb(0, 0, 0); fill-opacity: 0.2; stroke-width: 1; opacity: 1;"/><path class="sankey-link" d="M55.128362161714804,5.684341886080802e-14C537.5641810808575,5.684341886080802e-14 537.5641810808575,5.684341886080802e-14 1020,5.684341886080802e-14L1020,638.5894453321835C537.5641810808575,638.5894453321835 537.5641810808575,638.5894453321835 55.128362161714804,638.5894453321835Z" style="stroke: rgb(68, 68, 68); stroke-opacity: 1; fill: rgb(0, 0, 0); fill-opacity: 0.2; stroke-width: 0; opacity: 1;"/></g><g class="sankey-node-set" style="cursor: move;"><g class="sankey-node" transform="translate(35.128,0.000)" style="opacity: 1;"><rect class="node-rect" width="20" height="638.5894453321833" style="stroke-width: 0.5; stroke: rgb(0, 0, 0); stroke-opacity: 1; fill: rgb(0, 0, 255); fill-opacity: 1;"/><text class="node-label" data-notex="1" x="0" y="0" text-anchor="start" transform="translate(23.25,326.2947226660917)" style="cursor: default; font-family: 'Times New Roman'; font-size: 20px; fill: rgb(42, 63, 95); fill-opacity: 1; text-shadow: rgb(255, 255, 255) 1px 1px 1px, rgb(255, 255, 255) -1px -1px 1px, rgb(255, 255, 255) 1px -1px 1px, rgb(255, 255, 255) -1px 1px 1px; white-space: pre;">Computer and Mathematical Occupations</text></g><g class="sankey-node" transform="translate(35.128,686.118)" style="opacity: 1;"><rect class="node-rect" width="20" height="0.5" style="stroke-width: 0.5; stroke: rgb(0, 0, 0); stroke-opacity: 1; fill: rgb(0, 0, 255); fill-opacity: 1;"/><text class="node-label" data-notex="1" x="0" y="0" text-anchor="start" transform="translate(23.25,7.25)" style="cursor: default; font-family: 'Times New Roman'; font-size: 20px; fill: rgb(42, 63, 95); fill-opacity: 1; text-shadow: rgb(255, 255, 255) 1px 1px 1px, rgb(255, 255, 255) -1px -1px 1px, rgb(255, 255, 255) 1px -1px 1px, rgb(255, 255, 255) -1px 1px 1px; white-space: pre;"></text></g><g class="sankey-node" transform="translate(1020.000,0.000)" style="opacity: 1;"><rect class="node-rect" width="20" height="638.5894453321832" style="stroke-width: 0.5; stroke: rgb(0, 0, 0); stroke-opacity: 1; fill: rgb(0, 0, 255); fill-opacity: 1;"/><text class="node-label" data-notex="1" x="0" y="0" text-anchor="end" transform="translate(-3.25,326.2947226660916)" style="cursor: default; font-family: 'Times New Roman'; font-size: 20px; fill: rgb(42, 63, 95); fill-opacity: 1; text-shadow: rgb(255, 255, 255) 1px 1px 1px, rgb(255, 255, 255) -1px -1px 1px, rgb(255, 255, 255) 1px -1px 1px, rgb(255, 255, 255) -1px 1px 1px; white-space: pre;">Mathematical Science Occupations</text></g></g></g><defs id="topdefs-844e78"><g class="clips"/></defs><g class="layer-above"><g class="imagelayer"/><g class="shapelayer"/></g><g class="infolayer"><g class="g-gtitle"><text class="gtitle" x="60" y="50" text-anchor="start" dy="0em" style="opacity: 1; font-family: 'Times New Roman'; font-size: 28px; fill: rgb(42, 63, 95); fill-opacity: 1; white-space: pre;">Career Pathway Trends Between SOC Occupation Levels</text></g><g class="first-render"/></g></svg>